# xmcd
#
# Track frame offsets: 
#        150
#        23034
#        42509
#        56989
#        72757
#        90543
#        99520
#        117974
#        138162
#        158441
#        180677
#
# Disc length: 2840 seconds
#
# Revision: 0
# Processed by: cddbd v1.5.2PL0 Copyright (c) Steve Scherf et al.
# Submitted via: ExactAudioCopyFreeDBPlugin 1.0
#
DISCID=8b0b160b
DTITLE=Dead Soul - In The Darkness
DYEAR=2013
DGENRE=blues
TTITLE0=Hounds Of Hell
TTITLE1=Burn Forever
TTITLE2=They Will Pay
TTITLE3=Do Your Job
TTITLE4=The Patient
TTITLE5=Dead House
TTITLE6=Kill The Past
TTITLE7=Find That Man
TTITLE8=Lost My Will
TTITLE9=God Where Are You Tomorrow
TTITLE10=Asylum
EXTD=
EXTT0=
EXTT1=
EXTT2=
EXTT3=
EXTT4=
EXTT5=
EXTT6=
EXTT7=
EXTT8=
EXTT9=
EXTT10=
PLAYORDER=
